<svg width="130" height="28" viewBox="0 0 130 28" fill="none" xmlns="http://www.w3.org/2000/svg">
<mask id="mask0_1_19" style="mask-type:luminance" maskUnits="userSpaceOnUse" x="0" y="0" width="130" height="28">
<path d="M130 0.178162H0V27.8219H130V0.178162Z" fill="white"/>
</mask>
<g mask="url(#mask0_1_19)">
<path d="M0.162109 8.82978H2.37361V3.79413H6.13912V8.82978H9.03798V11.9826H6.13912V16.4206C6.13912 17.0083 6.23376 17.4666 6.42303 17.7953C6.6123 18.114 6.91115 18.2735 7.31958 18.2735C7.62838 18.2735 7.8824 18.2137 8.08166 18.0941C8.28092 17.9646 8.40046 17.8749 8.44028 17.8252L9.78511 20.5447C9.72534 20.6045 9.53109 20.7091 9.20235 20.8585C8.88355 21.0079 8.47017 21.1424 7.96212 21.262C7.46403 21.3914 6.90119 21.4562 6.27361 21.4562C5.14793 21.4562 4.21651 21.1324 3.47935 20.4849C2.74219 19.8275 2.37361 18.8114 2.37361 17.4367V11.9826H0.162109V8.82978Z" fill="white"/>
<path d="M20.2176 21.0974V18.9606C20.1279 19.1797 19.8989 19.4885 19.5302 19.887C19.1617 20.2855 18.6636 20.6491 18.036 20.9778C17.4184 21.2966 16.6911 21.456 15.8544 21.456C14.6789 21.456 13.6379 21.177 12.7314 20.6192C11.8249 20.0514 11.1126 19.2793 10.5946 18.3031C10.0865 17.3169 9.83252 16.2062 9.83252 14.9709C9.83252 13.7356 10.0865 12.6299 10.5946 11.6537C11.1126 10.6675 11.8249 9.89049 12.7314 9.32267C13.6379 8.75485 14.6789 8.47095 15.8544 8.47095C16.6713 8.47095 17.3785 8.61036 17.9762 8.88934C18.5839 9.1583 19.072 9.47703 19.4406 9.84566C19.8191 10.2043 20.0632 10.528 20.1727 10.8169V8.82957H23.9383V21.0974H20.2176ZM13.5532 14.9709C13.5532 15.6583 13.7076 16.2659 14.0164 16.7939C14.3253 17.3119 14.7337 17.7154 15.2417 18.0043C15.7498 18.2931 16.3026 18.4376 16.9003 18.4376C17.5279 18.4376 18.0858 18.2931 18.5739 18.0043C19.0621 17.7054 19.4456 17.297 19.7245 16.779C20.0134 16.251 20.1578 15.6483 20.1578 14.9709C20.1578 14.2935 20.0134 13.6958 19.7245 13.1778C19.4456 12.6498 19.0621 12.2365 18.5739 11.9376C18.0858 11.6388 17.5279 11.4893 16.9003 11.4893C16.3026 11.4893 15.7498 11.6388 15.2417 11.9376C14.7337 12.2265 14.3253 12.6349 14.0164 13.1629C13.7076 13.6809 13.5532 14.2836 13.5532 14.9709Z" fill="white"/>
<path d="M29.7737 21.0973H25.9634V0.536377H29.7737V21.0973Z" fill="white"/>
<path d="M34.6996 15.8077C34.7295 16.3655 34.8789 16.8636 35.1479 17.302C35.4168 17.7402 35.8053 18.0839 36.3134 18.333C36.8314 18.582 37.449 18.7066 38.1663 18.7066C38.8137 18.7066 39.3815 18.6269 39.8697 18.4675C40.3677 18.3081 40.7861 18.1138 41.1249 17.8847C41.4735 17.6457 41.7325 17.4165 41.9019 17.1974L43.4708 19.5284C43.1919 19.877 42.8183 20.2008 42.3502 20.4997C41.8919 20.7885 41.3042 21.0177 40.5869 21.187C39.8796 21.3664 38.993 21.456 37.9272 21.456C36.5823 21.456 35.4019 21.192 34.3858 20.6641C33.3697 20.1361 32.5777 19.374 32.0099 18.3778C31.4421 17.3816 31.1582 16.1962 31.1582 14.8215C31.1582 13.6261 31.4122 12.5503 31.9203 11.5939C32.4283 10.6276 33.1654 9.86553 34.1318 9.30773C35.108 8.74985 36.2785 8.47095 37.6433 8.47095C38.9283 8.47095 40.039 8.71996 40.9754 9.21807C41.9218 9.70617 42.6539 10.4234 43.172 11.3698C43.69 12.3161 43.949 13.4717 43.949 14.8365C43.949 14.9161 43.944 15.0805 43.9341 15.3296C43.9341 15.5686 43.9241 15.728 43.9042 15.8077H34.6996ZM40.3927 13.4618C40.3827 13.143 40.2831 12.7993 40.0938 12.4307C39.9145 12.0621 39.6306 11.7483 39.2421 11.4893C38.8536 11.2303 38.3355 11.1008 37.6881 11.1008C37.0406 11.1008 36.5076 11.2253 36.0892 11.4744C35.6808 11.7234 35.372 12.0322 35.1628 12.4008C34.9536 12.7595 34.8341 13.1131 34.8042 13.4618H40.3927Z" fill="white"/>
<path d="M53.2063 8.47095C54.043 8.47095 54.8599 8.64525 55.6568 8.99394C56.4537 9.33261 57.1063 9.87554 57.6143 10.6227C58.1323 11.3698 58.3913 12.346 58.3913 13.5514V21.0974H54.581V14.2089C54.581 13.2027 54.3419 12.4556 53.8637 11.9675C53.3955 11.4793 52.7779 11.2353 52.0109 11.2353C51.5128 11.2353 51.0346 11.3747 50.5764 11.6537C50.1281 11.9227 49.7595 12.3012 49.4706 12.7893C49.1917 13.2675 49.0522 13.8154 49.0522 14.433V21.0974H45.2568V8.82957H49.0522V10.787C49.1618 10.4483 49.4109 10.0997 49.7994 9.74106C50.1879 9.38244 50.681 9.08359 51.2787 8.84451C51.8764 8.59542 52.5189 8.47095 53.2063 8.47095Z" fill="white"/>
<path d="M59.1738 8.82978H61.3853V3.79413H65.1508V8.82978H68.0497V11.9826H65.1508V16.4206C65.1508 17.0083 65.2454 17.4666 65.4348 17.7953C65.624 18.114 65.9228 18.2735 66.3313 18.2735C66.6401 18.2735 66.8941 18.2137 67.0934 18.0941C67.2926 17.9646 67.4121 17.8749 67.452 17.8252L68.7968 20.5447C68.7371 20.6045 68.5428 20.7091 68.2141 20.8585C67.8953 21.0079 67.4819 21.1424 66.9738 21.262C66.4757 21.3914 65.9129 21.4562 65.2853 21.4562C64.1596 21.4562 63.2282 21.1324 62.4911 20.4849C61.7539 19.8275 61.3853 18.8114 61.3853 17.4367V11.9826H59.1738V8.82978Z" fill="white"/>
<path d="M74.7311 8.47095C75.4685 8.47095 76.1507 8.54065 76.7783 8.68014C77.4058 8.80962 77.9341 8.95904 78.3622 9.12842C78.8007 9.29772 79.0891 9.44221 79.2288 9.56175L77.9288 11.848C77.7293 11.6885 77.3707 11.4993 76.853 11.2801C76.3449 11.0609 75.7771 10.9514 75.1495 10.9514C74.5818 10.9514 74.1036 11.051 73.7151 11.2503C73.3266 11.4395 73.1323 11.7284 73.1323 12.1169C73.1323 12.5054 73.3415 12.8142 73.7599 13.0434C74.1783 13.2724 74.761 13.4717 75.5081 13.6411C76.1357 13.7705 76.7536 13.9698 77.361 14.2388C77.9684 14.4977 78.472 14.8763 78.8702 15.3744C79.2684 15.8625 79.4679 16.515 79.4679 17.3319C79.4679 18.1388 79.2938 18.8112 78.9449 19.3491C78.6065 19.877 78.153 20.2954 77.5851 20.6043C77.0173 20.9131 76.395 21.1322 75.7173 21.2618C75.0397 21.3912 74.3676 21.456 73.7002 21.456C72.8335 21.456 72.0714 21.3713 71.414 21.202C70.7565 21.0425 70.2135 20.8583 69.7852 20.6491C69.3668 20.4299 69.068 20.2457 68.8887 20.0962L70.1887 17.556C70.4477 17.7851 70.871 18.0391 71.4588 18.3181C72.0565 18.587 72.699 18.7215 73.3864 18.7215C74.1036 18.7215 74.6664 18.597 75.0748 18.348C75.4932 18.0989 75.7024 17.7652 75.7024 17.3468C75.7024 17.0379 75.603 16.7889 75.4035 16.5997C75.2041 16.4004 74.9306 16.2361 74.5818 16.1066C74.2331 15.977 73.8247 15.8625 73.3565 15.7629C72.9282 15.6732 72.4898 15.5437 72.0415 15.3744C71.5933 15.1951 71.1749 14.9609 70.7864 14.6721C70.3979 14.3832 70.0841 14.0246 69.845 13.5962C69.6059 13.1579 69.4864 12.6349 69.4864 12.0273C69.4864 11.2503 69.7354 10.6027 70.2335 10.0847C70.7316 9.55675 71.3791 9.1583 72.176 8.88934C72.973 8.61036 73.8247 8.47095 74.7311 8.47095Z" fill="white"/>
<path d="M84.7704 27.3135H81.0049V8.82957H84.8152V10.8169C84.9348 10.528 85.194 10.1993 85.5922 9.83072C85.9905 9.46208 86.509 9.14336 87.1463 8.8744C87.794 8.60543 88.5307 8.47095 89.3578 8.47095C90.5233 8.47095 91.5394 8.75485 92.406 9.32267C93.2727 9.89049 93.9399 10.6675 94.4083 11.6537C94.8865 12.6299 95.1256 13.7356 95.1256 14.9709C95.1256 16.2062 94.8768 17.3169 94.3784 18.3031C93.8801 19.2793 93.1883 20.0514 92.3014 20.6192C91.4146 21.177 90.3836 21.456 89.2083 21.456C88.3215 21.456 87.5594 21.2966 86.9221 20.9778C86.2848 20.659 85.7865 20.3004 85.4279 19.902C85.0693 19.5035 84.8503 19.1897 84.7704 18.9606V27.3135ZM91.4049 14.9709C91.4049 14.2836 91.2555 13.6809 90.9566 13.1629C90.6675 12.6349 90.279 12.2265 89.7911 11.9376C89.3032 11.6388 88.7601 11.4893 88.1624 11.4893C87.5348 11.4893 86.967 11.6388 86.4589 11.9376C85.9509 12.2365 85.5474 12.6498 85.2486 13.1778C84.9594 13.6958 84.8152 14.2935 84.8152 14.9709C84.8152 15.6483 84.9594 16.251 85.2486 16.779C85.5474 17.297 85.9509 17.7054 86.4589 18.0043C86.967 18.2931 87.5348 18.4376 88.1624 18.4376C88.7601 18.4376 89.3032 18.2931 89.7911 18.0043C90.279 17.7154 90.6675 17.3119 90.9566 16.7939C91.2555 16.2659 91.4049 15.6583 91.4049 14.9709Z" fill="white"/>
<path d="M102.483 21.456C101.178 21.456 100.013 21.177 98.986 20.6192C97.9699 20.0613 97.1735 19.2993 96.5952 18.333C96.0177 17.3567 95.7285 16.246 95.7285 15.0008C95.7285 13.7556 96.0177 12.6448 96.5952 11.6686C97.1735 10.6824 97.9699 9.90543 98.986 9.33761C100.013 8.75979 101.178 8.47095 102.483 8.47095C103.797 8.47095 104.959 8.75979 105.964 9.33761C106.971 9.90543 107.757 10.6824 108.325 11.6686C108.893 12.6448 109.177 13.7556 109.177 15.0008C109.177 16.246 108.893 17.3567 108.325 18.333C107.757 19.2993 106.971 20.0613 105.964 20.6192C104.959 21.177 103.797 21.456 102.483 21.456ZM102.483 18.3031C103.11 18.3031 103.653 18.1636 104.111 17.8847C104.58 17.5958 104.938 17.2023 105.187 16.7043C105.446 16.1962 105.576 15.6234 105.576 14.9859C105.576 14.3483 105.446 13.7755 105.187 13.2675C104.938 12.7595 104.58 12.3609 104.111 12.0721C103.653 11.7732 103.11 11.6238 102.483 11.6238C101.855 11.6238 101.307 11.7732 100.839 12.0721C100.381 12.3609 100.022 12.7595 99.763 13.2675C99.5045 13.7755 99.3745 14.3483 99.3745 14.9859C99.3745 15.6234 99.5045 16.1962 99.763 16.7043C100.022 17.2023 100.381 17.5958 100.839 17.8847C101.307 18.1636 101.855 18.3031 102.483 18.3031Z" fill="white"/>
<path d="M109.558 8.82978H111.77V3.79413H115.535V8.82978H118.434V11.9826H115.535V16.4206C115.535 17.0083 115.63 17.4666 115.819 17.7953C116.008 18.114 116.307 18.2735 116.716 18.2735C117.024 18.2735 117.278 18.2137 117.478 18.0941C117.677 17.9646 117.797 17.8749 117.836 17.8252L119.181 20.5447C119.121 20.6045 118.927 20.7091 118.598 20.8585C118.279 21.0079 117.866 21.1424 117.358 21.262C116.86 21.3914 116.297 21.4562 115.67 21.4562C114.544 21.4562 113.613 21.1324 112.875 20.4849C112.138 19.8275 111.77 18.8114 111.77 17.4367V11.9826H109.558V8.82978Z" fill="white"/>
<path d="M126.066 21.6714C124.999 21.6714 124.082 21.2888 123.317 20.5238C122.552 19.7587 122.169 18.8422 122.169 17.7744C122.169 16.6746 122.552 15.7422 123.317 14.9771C124.082 14.2121 124.999 13.8295 126.066 13.8295C127.166 13.8295 128.09 14.2121 128.84 14.9771C129.605 15.7422 129.987 16.6746 129.987 17.7744C129.987 18.8422 129.605 19.7587 128.84 20.5238C128.09 21.2888 127.166 21.6714 126.066 21.6714Z" fill="#2278E7"/>
</g>
</svg>
